# xmcd
#
# Track frame offsets:
#  150
#  13537
#  35292
#  53609
#  70136
#  99093
#  112082
#  131969
#  160546
#  196768
#  211443
#  222697
#  235759
#  250679
#  275108
#  290078
#  306730
#
# Disc length: 4345 seconds
#
# Revision: 1
# Processed by: cddbd v1.5.1PL2 Copyright (c) Steve Scherf et al.
# Submitted via: Collectorz.com_Music_Collector 6.9
#
DISCID=0010f711
DTITLE=Various Artist - Red Hot and Country
DYEAR=1993
DGENRE=Country
TTITLE0=Suzy Bogguss - Alison Krauss - Kathy Mattea - Teach Your Children
TTITLE1=Sammy Kershaw - Fire And Rain
TTITLE2=Brooks and Dunn - Johnny Cash - Folsom Prison Blues
TTITLE3=Kathy Mattea - Jackson Browne - Rock Me On The Water
TTITLE4=Carl Perkins - Duane Eddy - The Mavericks - Matchbox
TTITLE5=Jimmy Dale Gilmore - Willie Nelson - Crazy
TTITLE6=Mary Chapin Carpenter - Willie Short
TTITLE7=Johnny Cash - Forever Young
TTITLE8=Nanci Griffith - Jimmy Webb - If These Old Walls Could Speak
TTITLE9=Marty Stuart - Jerry and Tammy Sullivan - Up Above My Head/Blind Bartimus
TTITLE10=Dolly Parton - You Gotta Be My Baby
TTITLE11=Radney Foster - Close Up The Honky Tonks
TTITLE12=Mark Chesnutt - Goodbye Comes Hard For Me
TTITLE13=Billy Ray Cyrus - Pictures Don't Lie
TTITLE14=Patty Loveless - When I Reach The Place I'm Going
TTITLE15=Wilco - Syd Straw - The T.B. Is Whipping Me
TTITLE16=Randy Scruggs - Earl Scruggs - Doc Watson - Keep On The Sunny Side
EXTD=
EXTT0=
EXTT1=
EXTT2=
EXTT3=
EXTT4=
EXTT5=
EXTT6=
EXTT7=
EXTT8=
EXTT9=
EXTT10=
EXTT11=
EXTT12=
EXTT13=
EXTT14=
EXTT15=
EXTT16=
PLAYORDER=
